<svg xmlns="http://www.w3.org/2000/svg" viewBox="0 0 380 380"><defs><linearGradient id="blue" x1="0" x2="1"><stop stop-color="#c9e8fc"/><stop offset=".45" stop-color="#b7d8f4"/><stop offset="1" stop-color="#789bd7"/></linearGradient><filter id="shadow" x="-30%" y="-30%" width="160%" height="170%"><feDropShadow dx="0" dy="17" stdDeviation="9" flood-color="#254f92" flood-opacity=".17"/></filter></defs><g filter="url(#shadow)"><g transform="rotate(-10 190 190)"><path d="M103 111L244 88 287 134 271 307 101 327 69 286Z" fill="#83a9dc"/><path d="M103 111L244 88 235 292 101 327Z" fill="#d8ecfb"/><path d="M244 88L287 134 271 307 235 292Z" fill="#a3c3e9"/><path d="M129 130V83q0-38 39-41t40 41v36" fill="none" stroke="#7195c8" stroke-width="12"/><path d="M127 198L210 184 207 257 124 273Z" fill="#0878b9"/><circle cx="165" cy="223" r="24" fill="#ffe117"/><path d="M152 211h26v28h-26Z" fill="#ed336c"/></g></g></svg>