<svg xmlns="http://www.w3.org/2000/svg" viewBox="0 0 380 380"><defs><linearGradient id="blue" x1="0" x2="1"><stop stop-color="#c9e8fc"/><stop offset=".45" stop-color="#b7d8f4"/><stop offset="1" stop-color="#789bd7"/></linearGradient><filter id="shadow" x="-30%" y="-30%" width="160%" height="170%"><feDropShadow dx="0" dy="17" stdDeviation="9" flood-color="#254f92" flood-opacity=".17"/></filter></defs><g filter="url(#shadow)"><g transform="translate(25 12) rotate(-12 180 180)"><path d="M75 77L235 52 282 85 281 282 117 311 72 276Z" fill="#86aee3"/><path d="M117 110L282 85 281 282 117 311Z" fill="#e8f5ff"/><path d="M72 77L235 52 282 85 117 111Z" fill="#b6d6f7"/><path d="M117 111L72 77 72 276 117 311Z" fill="#7498d4"/><path d="M143 160L255 142 255 205 143 223Z" fill="#0878b9"/><path d="M142 235L221 222M142 251L245 235M142 267L198 258" stroke="#92add4" stroke-width="7"/><circle cx="225" cy="169" r="21" fill="#ffdb12"/><path d="M142 163L174 158 198 212 142 221Z" fill="#ec2e68"/></g></g></svg>