<svg xmlns="http://www.w3.org/2000/svg" viewBox="0 0 380 380"><defs><linearGradient id="blue" x1="0" x2="1"><stop stop-color="#c9e8fc"/><stop offset=".45" stop-color="#b7d8f4"/><stop offset="1" stop-color="#789bd7"/></linearGradient><filter id="shadow" x="-30%" y="-30%" width="160%" height="170%"><feDropShadow dx="0" dy="17" stdDeviation="9" flood-color="#254f92" flood-opacity=".17"/></filter></defs><g filter="url(#shadow)"><g transform="translate(0 8)"><path d="M48 119L221 56 333 120 169 194Z" fill="#dff2ff"/><path d="M48 119L169 194 169 320 48 242Z" fill="#9abce8"/><path d="M169 194L333 120 333 250 169 320Z" fill="#759bd6"/><path d="M111 94L231 166 265 151 144 82Z" fill="#fff0a0"/><path d="M231 166L265 151V278L231 293Z" fill="#ffe014"/><path d="M67 157L142 203 142 261 67 215Z" fill="#f5f9ff"/><path d="M80 179L122 205M80 196L116 218" stroke="#e9366d" stroke-width="9"/></g></g></svg>